<svg width="16" height="16" viewBox="0 0 16 16" fill="none" xmlns="http://www.w3.org/2000/svg">
<path d="M15.0513 4.38407C15.3107 4.64348 15.44 4.98258 15.44 5.32257C15.44 5.66166 15.3107 6.00253 15.0513 6.26194L6.25072 15.0617C5.99131 15.3211 5.60795 15.5557 5.19802 15.7257C4.78809 15.8957 4.35072 16.001 3.98417 16.001H1C0.447715 16.001 0 15.5533 0 15.001V12.0169C0 11.6503 0.105359 11.2112 0.275351 10.8012C0.445342 10.3931 0.679966 10.0088 0.93938 9.74942L9.73909 0.949713C9.9985 0.690299 10.3376 0.561035 10.6776 0.561035C11.0167 0.561035 11.3576 0.690299 11.617 0.949713L15.0513 4.38407ZM2.45071 10.7428L3.54149 11.8336L9.73909 5.37657L8.64831 4.28579L2.45071 10.7428ZM1.77074 14.2303H3.98417C4.05235 14.2303 4.25244 14.2011 4.53753 14.0824C4.53753 14.0824 1.91949 11.4635 1.91063 11.4812C1.79996 11.7468 1.77074 11.9487 1.77074 12.0169V14.2303ZM5.25822 13.5503L11.5098 7.14732L10.4191 6.05654L4.16745 12.4595L5.25822 13.5503ZM9.40762 3.60583L12.216 6.41423L13.359 5.26944L10.5524 2.46104L9.40762 3.60583Z" fill="#D2D7DC"/>
</svg>
