<svg width="24" height="24" viewBox="0 0 24 24" fill="none" xmlns="http://www.w3.org/2000/svg">
<path d="M20.0513 7.38407C20.3107 7.64348 20.44 7.98258 20.44 8.32257C20.44 8.66166 20.3107 9.00253 20.0513 9.26194L11.2507 18.0617C10.9913 18.3211 10.6079 18.5557 10.198 18.7257C9.78809 18.8957 9.35072 19.001 8.98417 19.001H6C5.44772 19.001 5 18.5533 5 18.001V15.0169C5 14.6503 5.10536 14.2112 5.27535 13.8012C5.44534 13.3931 5.67997 13.0088 5.93938 12.7494L14.7391 3.94971C14.9985 3.6903 15.3376 3.56104 15.6776 3.56104C16.0167 3.56104 16.3576 3.6903 16.617 3.94971L20.0513 7.38407ZM7.45071 13.7428L8.54149 14.8336L14.7391 8.37657L13.6483 7.28579L7.45071 13.7428ZM6.77074 17.2303H8.98417C9.05235 17.2303 9.25244 17.2011 9.53753 17.0824C9.53753 17.0824 6.91949 14.4635 6.91063 14.4812C6.79996 14.7468 6.77074 14.9487 6.77074 15.0169V17.2303ZM10.2582 16.5503L16.5098 10.1473L15.4191 9.05654L9.16745 15.4595L10.2582 16.5503ZM14.4076 6.60583L17.216 9.41423L18.359 8.26944L15.5524 5.46104L14.4076 6.60583Z" fill="#EBC71D"/>
</svg>
