<svg width="107" height="20" viewBox="0 0 107 20" fill="none" xmlns="http://www.w3.org/2000/svg">
<path fill-rule="evenodd" clip-rule="evenodd" d="M34.3134 18.0613C37.618 17.8597 40.9242 17.6752 44.2306 17.4957C44.5783 17.4775 44.9265 17.459 45.2747 17.4409C44.0839 17.5019 43.9194 17.5107 44.7801 17.4671C45.6509 17.4254 46.5213 17.3806 47.3915 17.3389C49.1324 17.2551 50.8734 17.1758 52.6154 17.0983C55.8282 16.9559 100.43 19.7202 102.965 17.882C105.118 16.3207 106.869 13.6509 106.951 11.2257C107.11 6.49587 102.718 0.530754 96.2281 0.818437C81.2604 1.48217 24.3855 -0.77003 9.45875 0.375623C3.39919 0.841063 -1.04107 7.09114 0.339327 11.8226C1.96254 17.3854 7.48526 19.9637 13.9788 19.4653C20.7518 18.9455 27.53 18.4747 34.3134 18.0613Z" fill="#B2DEE3"/>
</svg>
