<svg width="33" height="8" viewBox="0 0 33 8" fill="none" xmlns="http://www.w3.org/2000/svg">
<path d="M1.17384 0.238L0.137836 4.928C0.109836 5.068 0.067836 5.362 0.067836 5.488C0.067836 6.58 0.879836 7.168 2.08384 7.168C3.04984 7.168 3.87584 6.58 4.46384 6.02L4.23984 7H5.28984L6.78784 0.238H5.73784L4.65984 5.166C4.12784 5.698 3.34384 6.23 2.57384 6.23C1.77584 6.23 1.17384 5.922 1.17384 5.138C1.17384 4.984 1.21584 4.802 1.24384 4.662L2.22384 0.238H1.17384ZM9.99077 7.168C11.6848 7.168 12.6508 6.118 12.6508 4.942C12.6508 2.968 9.09477 3.178 9.09477 1.96C9.09477 1.386 9.64077 0.924 10.5508 0.924C11.4188 0.924 12.2728 1.372 12.5808 1.862L13.1828 1.176C12.7348 0.56 11.7548 0.0699995 10.6068 0.0699995C8.95477 0.0699995 8.04477 1.036 8.04477 2.156C8.04477 4.046 11.6008 3.836 11.6008 5.124C11.6008 5.74 11.0128 6.314 10.0468 6.314C9.03877 6.314 8.17077 5.782 7.80677 5.25L7.13477 5.978C7.75077 6.748 8.77277 7.168 9.99077 7.168ZM17.4646 7.168C18.3326 7.168 19.2286 6.846 19.8306 6.37L19.4806 5.642C18.9346 6.076 18.1926 6.3 17.5346 6.3C16.0086 6.3 15.2386 5.334 15.2386 4.284C15.2386 4.186 15.2526 4.018 15.2526 3.962H20.7686C20.8106 3.766 20.8806 3.346 20.8806 3.024C20.8806 1.302 19.7466 0.0699995 17.9686 0.0699995C15.8266 0.0699995 14.1606 1.932 14.1606 4.172C14.1606 5.978 15.4066 7.168 17.4646 7.168ZM15.3646 3.192C15.5746 1.988 16.6246 0.938 17.8706 0.938C19.2146 0.938 19.9286 1.806 19.9286 2.926C19.9286 2.996 19.9146 3.136 19.9006 3.192H15.3646ZM22.8333 7L23.8833 2.226C24.3173 1.652 25.0593 1.12 25.8433 1.12C26.0813 1.12 26.2913 1.148 26.3753 1.176L26.6133 0.0979996C25.4513 0.0979996 24.7653 0.504 24.0933 1.274L24.3313 0.238H23.2813L21.7833 7H22.8333ZM29.0084 7.168C30.7024 7.168 31.6684 6.118 31.6684 4.942C31.6684 2.968 28.1124 3.178 28.1124 1.96C28.1124 1.386 28.6584 0.924 29.5684 0.924C30.4364 0.924 31.2904 1.372 31.5984 1.862L32.2004 1.176C31.7524 0.56 30.7724 0.0699995 29.6244 0.0699995C27.9724 0.0699995 27.0624 1.036 27.0624 2.156C27.0624 4.046 30.6184 3.836 30.6184 5.124C30.6184 5.74 30.0304 6.314 29.0644 6.314C28.0564 6.314 27.1884 5.782 26.8244 5.25L26.1524 5.978C26.7684 6.748 27.7904 7.168 29.0084 7.168Z" fill="#013042"/>
</svg>
