<?xml version="1.0" encoding="UTF-8" standalone="no"?>
<svg
   xmlns:dc="http://purl.org/dc/elements/1.1/"
   xmlns:cc="http://creativecommons.org/ns#"
   xmlns:rdf="http://www.w3.org/1999/02/22-rdf-syntax-ns#"
   xmlns:svg="http://www.w3.org/2000/svg"
   xmlns="http://www.w3.org/2000/svg"
   xmlns:sodipodi="http://sodipodi.sourceforge.net/DTD/sodipodi-0.dtd"
   xmlns:inkscape="http://www.inkscape.org/namespaces/inkscape"
   width="58"
   height="75"
   viewBox="0 0 58 75"
   fill="none"
   version="1.1"
   id="svg1007"
   sodipodi:docname="state_selected.svg"
   inkscape:version="1.0.1 (c497b03c, 2020-09-10)">
  <metadata
     id="metadata1013">
    <rdf:RDF>
      <cc:Work
         rdf:about="">
        <dc:format>image/svg+xml</dc:format>
        <dc:type
           rdf:resource="http://purl.org/dc/dcmitype/StillImage" />
        <dc:title></dc:title>
      </cc:Work>
    </rdf:RDF>
  </metadata>
  <defs
     id="defs1011" />
  <sodipodi:namedview
     pagecolor="#ffffff"
     bordercolor="#666666"
     borderopacity="1"
     objecttolerance="10"
     gridtolerance="10"
     guidetolerance="10"
     inkscape:pageopacity="0"
     inkscape:pageshadow="2"
     inkscape:window-width="2560"
     inkscape:window-height="1395"
     id="namedview1009"
     showgrid="false"
     inkscape:zoom="11.655738"
     inkscape:cx="29"
     inkscape:cy="30.5"
     inkscape:window-x="0"
     inkscape:window-y="23"
     inkscape:window-maximized="1"
     inkscape:current-layer="svg1007" />
  <g
     id="g1580"
     transform="translate(-0.6001,21.832)">
    <path
       d="m 29.8201,33 c 8.5005,0 15.3123,-7.2082 15.3123,-16 0,-8.79181 -6.8118,-16 -15.3123,-16 -8.5004,0 -15.3123,7.20819 -15.3123,16 0,8.7918 6.8119,16 15.3123,16 z"
       fill="#013042"
       stroke="#ffffff"
       stroke-width="2"
       id="path999" />
    <path
       d="m 26,11 -5,6 5,6"
       stroke="#ffffff"
       id="path1001" />
    <path
       d="m 33,11 5,6 -5,6"
       stroke="#ffffff"
       id="path1003" />
    <path
       d="m 14.1738,46.238 -1.036,4.69 c -0.028,0.14 -0.07,0.434 -0.07,0.56 0,1.092 0.812,1.68 2.016,1.68 0.966,0 1.792,-0.588 2.38,-1.148 L 17.2398,53 h 1.05 l 1.498,-6.762 h -1.05 l -1.078,4.928 c -0.532,0.532 -1.316,1.064 -2.086,1.064 -0.798,0 -1.4,-0.308 -1.4,-1.092 0,-0.154 0.042,-0.336 0.07,-0.476 l 0.98,-4.424 z m 8.817,6.93 c 1.694,0 2.66,-1.05 2.66,-2.226 0,-1.974 -3.556,-1.764 -3.556,-2.982 0,-0.574 0.546,-1.036 1.456,-1.036 0.868,0 1.722,0.448 2.03,0.938 l 0.602,-0.686 c -0.448,-0.616 -1.428,-1.106 -2.576,-1.106 -1.652,0 -2.562,0.966 -2.562,2.086 0,1.89 3.556,1.68 3.556,2.968 0,0.616 -0.588,1.19 -1.554,1.19 -1.008,0 -1.876,-0.532 -2.24,-1.064 l -0.672,0.728 c 0.616,0.77 1.638,1.19 2.856,1.19 z m 7.4738,0 c 0.868,0 1.764,-0.322 2.366,-0.798 l -0.35,-0.728 c -0.546,0.434 -1.288,0.658 -1.946,0.658 -1.526,0 -2.296,-0.966 -2.296,-2.016 0,-0.098 0.014,-0.266 0.014,-0.322 h 5.516 c 0.042,-0.196 0.112,-0.616 0.112,-0.938 0,-1.722 -1.134,-2.954 -2.912,-2.954 -2.142,0 -3.808,1.862 -3.808,4.102 0,1.806 1.246,2.996 3.304,2.996 z m -2.1,-3.976 c 0.21,-1.204 1.26,-2.254 2.506,-2.254 1.344,0 2.058,0.868 2.058,1.988 0,0.07 -0.014,0.21 -0.028,0.266 z m 7.4687,3.808 1.05,-4.774 c 0.434,-0.574 1.176,-1.106 1.96,-1.106 0.238,0 0.448,0.028 0.532,0.056 l 0.238,-1.078 c -1.162,0 -1.848,0.406 -2.52,1.176 l 0.238,-1.036 h -1.05 L 34.7833,53 Z m 6.1751,0.168 c 1.694,0 2.66,-1.05 2.66,-2.226 0,-1.974 -3.556,-1.764 -3.556,-2.982 0,-0.574 0.546,-1.036 1.456,-1.036 0.868,0 1.722,0.448 2.03,0.938 l 0.602,-0.686 c -0.448,-0.616 -1.428,-1.106 -2.576,-1.106 -1.652,0 -2.562,0.966 -2.562,2.086 0,1.89 3.556,1.68 3.556,2.968 0,0.616 -0.588,1.19 -1.554,1.19 -1.008,0 -1.876,-0.532 -2.24,-1.064 l -0.672,0.728 c 0.616,0.77 1.638,1.19 2.856,1.19 z"
       fill="#013042"
       id="path1005" />
  </g>
</svg>
