<?xml version="1.0" encoding="UTF-8" standalone="no"?>
<svg
   xmlns:dc="http://purl.org/dc/elements/1.1/"
   xmlns:cc="http://creativecommons.org/ns#"
   xmlns:rdf="http://www.w3.org/1999/02/22-rdf-syntax-ns#"
   xmlns:svg="http://www.w3.org/2000/svg"
   xmlns="http://www.w3.org/2000/svg"
   xmlns:sodipodi="http://sodipodi.sourceforge.net/DTD/sodipodi-0.dtd"
   xmlns:inkscape="http://www.inkscape.org/namespaces/inkscape"
   width="33"
   height="68"
   viewBox="0 0 33 68"
   fill="none"
   version="1.1"
   id="svg841"
   sodipodi:docname="users-slider.svg"
   inkscape:version="1.0.1 (c497b03c, 2020-09-10)">
  <metadata
     id="metadata847">
    <rdf:RDF>
      <cc:Work
         rdf:about="">
        <dc:format>image/svg+xml</dc:format>
        <dc:type
           rdf:resource="http://purl.org/dc/dcmitype/StillImage" />
        <dc:title></dc:title>
      </cc:Work>
    </rdf:RDF>
  </metadata>
  <defs
     id="defs845" />
  <sodipodi:namedview
     pagecolor="#ffffff"
     bordercolor="#666666"
     borderopacity="1"
     objecttolerance="10"
     gridtolerance="10"
     guidetolerance="10"
     inkscape:pageopacity="0"
     inkscape:pageshadow="2"
     inkscape:window-width="1180"
     inkscape:window-height="775"
     id="namedview843"
     showgrid="false"
     inkscape:zoom="8.6551724"
     inkscape:cx="29.346614"
     inkscape:cy="33.098934"
     inkscape:window-x="307"
     inkscape:window-y="110"
     inkscape:window-maximized="0"
     inkscape:current-layer="svg841"
     inkscape:document-rotation="0" />
  <g
     id="g852"
     transform="matrix(0.99999729,0,0,0.99999643,-13.320019,5.0001035)">
    <path
       d="m 29.8201,45 c 8.5005,0 15.3123,-7.2082 15.3123,-16 0,-8.79181 -6.8118,-16 -15.3123,-16 -8.5004,0 -15.3123,7.20819 -15.3123,16 0,8.7918 6.8119,16 15.3123,16 z"
       fill="#ffffff"
       stroke="#013042"
       stroke-width="2"
       id="path833" />
    <path
       d="M 26.3654,24 21.4302,30.0294 26.3654,35"
       stroke="#013042"
       id="path835" />
    <path
       d="M 33.2747,35 38.21,28.9706 33.2747,24"
       stroke="#013042"
       id="path837" />
  </g>
  <path
     d="M 1.4242029,61.070025 0.3882057,65.760008 C 0.3602058,65.900007 0.3182059,66.194006 0.3182059,66.320006 0.31820589,67.412002 1.1302037,68 2.3342004,68 3.3001978,68 4.1261956,67.412002 4.714194,66.852004 L 4.4901946,67.832 h 1.0499971 l 1.497996,-6.761975 H 5.9881905 l -1.0779971,4.927982 c -0.5319985,0.531998 -1.3159964,1.063996 -2.0859943,1.063996 -0.7979978,0 -1.3999962,-0.307999 -1.3999962,-1.091996 0,-0.153999 0.042,-0.335999 0.07,-0.475998 L 2.4742,61.070025 Z M 10.241179,68 c 1.693995,0 2.659993,-1.049996 2.659993,-2.225992 0,-1.973993 -3.5559906,-1.763994 -3.5559906,-2.98199 0,-0.573998 0.5459985,-1.035996 1.4559956,-1.035996 0.867998,0 1.721996,0.447999 2.029995,0.937997 l 0.601998,-0.685998 c -0.447998,-0.615998 -1.427996,-1.105996 -2.575993,-1.105996 -1.6519952,0 -2.5619927,0.965997 -2.5619927,2.085993 0,1.889993 3.5559907,1.679994 3.5559907,2.967989 0,0.615998 -0.587999,1.189996 -1.553996,1.189996 -1.0079974,0 -1.8759951,-0.531998 -2.2399941,-1.063996 L 7.3851867,66.810004 C 8.0011851,67.580001 9.0231823,68 10.241179,68 Z m 7.47378,0 c 0.867997,0 1.763995,-0.321999 2.365993,-0.797997 l -0.349999,-0.727998 c -0.545998,0.433999 -1.287996,0.657998 -1.945994,0.657998 -1.525996,0 -2.295994,-0.965997 -2.295994,-2.015993 0,-0.098 0.014,-0.265999 0.014,-0.321999 h 5.515985 c 0.042,-0.195999 0.111999,-0.615998 0.111999,-0.937996 0,-1.721994 -1.133996,-2.95399 -2.911992,-2.95399 -2.141994,0 -3.807989,1.861994 -3.807989,4.101986 0,1.805993 1.245996,2.995989 3.303991,2.995989 z m -2.099995,-3.975986 c 0.21,-1.203996 1.259997,-2.253992 2.505994,-2.253992 1.343996,0 2.057994,0.867997 2.057994,1.987993 0,0.07 -0.014,0.209999 -0.028,0.265999 z m 7.46868,3.807986 1.049997,-4.773983 c 0.433999,-0.573997 1.175997,-1.105996 1.959995,-1.105996 0.237999,0 0.447999,0.028 0.531999,0.056 l 0.237999,-1.077996 c -1.161997,0 -1.847995,0.405999 -2.519993,1.175996 L 24.58164,61.070025 H 23.531643 L 22.033647,67.832 Z M 29.258727,68 c 1.693996,0 2.659993,-1.049996 2.659993,-2.225992 0,-1.973993 -3.55599,-1.763994 -3.55599,-2.98199 0,-0.573998 0.545998,-1.035996 1.455996,-1.035996 0.867998,0 1.721995,0.447999 2.029994,0.937997 l 0.601999,-0.685998 c -0.447999,-0.615998 -1.427996,-1.105996 -2.575993,-1.105996 -1.651996,0 -2.561993,0.965997 -2.561993,2.085993 0,1.889993 3.55599,1.679994 3.55599,2.967989 0,0.615998 -0.587998,1.189996 -1.553996,1.189996 -1.007997,0 -1.875995,-0.531998 -2.239994,-1.063996 l -0.671998,0.727997 C 27.018734,67.580001 28.040731,68 29.258727,68 Z"
     fill="#013042"
     id="path839"
     style="stroke-width:0.999997" />
</svg>
