<svg width="20" height="20" viewBox="0 0 20 20" fill="none" xmlns="http://www.w3.org/2000/svg">
<path d="M15 0C17.2091 0 19 1.79086 19 4C19 5.11907 18.5405 6.1308 17.7998 6.85679C19.1274 7.75569 20 9.27594 20 11V14C20 14.5523 19.5523 15 19 15C18.4477 15 18 14.5523 18 14V11C18 9.34315 16.6569 8 15 8H14C14 8.93648 13.6782 9.79779 13.1391 10.4794C14.8304 11.2811 16 13.004 16 15V19C16 19.5523 15.5523 20 15 20C14.4477 20 14 19.5523 14 19V15C14 13.3431 12.6569 12 11 12H9C7.34315 12 6 13.3431 6 15V19C6 19.5523 5.55228 20 5 20C4.44772 20 4 19.5523 4 19V15C4 13.004 5.16963 11.2811 6.8609 10.4794C6.32182 9.79779 6 8.93648 6 8H5C3.34315 8 2 9.34315 2 11V14C2 14.5523 1.55228 15 1 15C0.447715 15 0 14.5523 0 14V11C0 9.27594 0.872588 7.75569 2.20022 6.85679C1.45955 6.1308 1 5.11907 1 4C1 1.79086 2.79086 0 5 0C7.20914 0 9 1.79086 9 4L8.99804 4.12652C9.31825 4.04393 9.65399 4 10 4C10.346 4 10.6818 4.04393 11.002 4.12652C11.0007 4.08451 11 4.04233 11 4C11 1.79086 12.7909 0 15 0ZM5 2C3.89543 2 3 2.89543 3 4C3 5.10457 3.89543 6 5 6C6.10457 6 7 5.10457 7 4C7 2.89543 6.10457 2 5 2ZM15 2C13.8954 2 13 2.89543 13 4C13 5.10457 13.8954 6 15 6C16.1046 6 17 5.10457 17 4C17 2.89543 16.1046 2 15 2ZM10 10C11.1046 10 12 9.10457 12 8C12 6.89543 11.1046 6 10 6C8.89543 6 8 6.89543 8 8C8 9.10457 8.89543 10 10 10Z" fill="#D2D7DC"/>
</svg>
