<svg width="24" height="24" viewBox="0 0 24 24" fill="none" xmlns="http://www.w3.org/2000/svg">
<path d="M17 2C19.2091 2 21 3.79086 21 6C21 7.11907 20.5405 8.1308 19.7998 8.85679C21.1274 9.75569 22 11.2759 22 13V16C22 16.5523 21.5523 17 21 17C20.4477 17 20 16.5523 20 16V13C20 11.3431 18.6569 10 17 10H16C16 10.9365 15.6782 11.7978 15.1391 12.4794C16.8304 13.2811 18 15.004 18 17V21C18 21.5523 17.5523 22 17 22C16.4477 22 16 21.5523 16 21V17C16 15.3431 14.6569 14 13 14H11C9.34315 14 8 15.3431 8 17V21C8 21.5523 7.55228 22 7 22C6.44772 22 6 21.5523 6 21V17C6 15.004 7.16963 13.2811 8.8609 12.4794C8.32182 11.7978 8 10.9365 8 10H7C5.34315 10 4 11.3431 4 13V16C4 16.5523 3.55228 17 3 17C2.44772 17 2 16.5523 2 16V13C2 11.2759 2.87259 9.75569 4.20022 8.85679C3.45955 8.1308 3 7.11907 3 6C3 3.79086 4.79086 2 7 2C9.20914 2 11 3.79086 11 6L10.998 6.12652C11.3182 6.04393 11.654 6 12 6C12.346 6 12.6818 6.04393 13.002 6.12652C13.0007 6.08451 13 6.04233 13 6C13 3.79086 14.7909 2 17 2ZM7 4C5.89543 4 5 4.89543 5 6C5 7.10457 5.89543 8 7 8C8.10457 8 9 7.10457 9 6C9 4.89543 8.10457 4 7 4ZM17 4C15.8954 4 15 4.89543 15 6C15 7.10457 15.8954 8 17 8C18.1046 8 19 7.10457 19 6C19 4.89543 18.1046 4 17 4ZM12 12C13.1046 12 14 11.1046 14 10C14 8.89543 13.1046 8 12 8C10.8954 8 10 8.89543 10 10C10 11.1046 10.8954 12 12 12Z" fill="#EBC71D"/>
</svg>
