<svg width="58" height="61" viewBox="0 0 58 61" fill="none" xmlns="http://www.w3.org/2000/svg">
<path d="M29.8201 33C38.3206 33 45.1324 25.7918 45.1324 17C45.1324 8.20819 38.3206 1 29.8201 1C21.3197 1 14.5078 8.20819 14.5078 17C14.5078 25.7918 21.3197 33 29.8201 33Z" fill="white" stroke="#013042" stroke-width="2"/>
<path d="M26.3654 12L21.4302 18.0294L26.3654 23" stroke="#013042"/>
<path d="M33.2747 23L38.21 16.9706L33.2747 12" stroke="#013042"/>
<path d="M14.1738 46.238L13.1378 50.928C13.1098 51.068 13.0678 51.362 13.0678 51.488C13.0678 52.58 13.8798 53.168 15.0838 53.168C16.0498 53.168 16.8758 52.58 17.4638 52.02L17.2398 53H18.2898L19.7878 46.238H18.7378L17.6598 51.166C17.1278 51.698 16.3438 52.23 15.5738 52.23C14.7758 52.23 14.1738 51.922 14.1738 51.138C14.1738 50.984 14.2158 50.802 14.2438 50.662L15.2238 46.238H14.1738ZM22.9908 53.168C24.6848 53.168 25.6508 52.118 25.6508 50.942C25.6508 48.968 22.0948 49.178 22.0948 47.96C22.0948 47.386 22.6408 46.924 23.5508 46.924C24.4188 46.924 25.2728 47.372 25.5808 47.862L26.1828 47.176C25.7348 46.56 24.7548 46.07 23.6068 46.07C21.9548 46.07 21.0448 47.036 21.0448 48.156C21.0448 50.046 24.6008 49.836 24.6008 51.124C24.6008 51.74 24.0128 52.314 23.0468 52.314C22.0388 52.314 21.1708 51.782 20.8068 51.25L20.1348 51.978C20.7508 52.748 21.7728 53.168 22.9908 53.168ZM30.4646 53.168C31.3326 53.168 32.2286 52.846 32.8306 52.37L32.4806 51.642C31.9346 52.076 31.1926 52.3 30.5346 52.3C29.0086 52.3 28.2386 51.334 28.2386 50.284C28.2386 50.186 28.2526 50.018 28.2526 49.962H33.7686C33.8106 49.766 33.8806 49.346 33.8806 49.024C33.8806 47.302 32.7466 46.07 30.9686 46.07C28.8266 46.07 27.1606 47.932 27.1606 50.172C27.1606 51.978 28.4066 53.168 30.4646 53.168ZM28.3646 49.192C28.5746 47.988 29.6246 46.938 30.8706 46.938C32.2146 46.938 32.9286 47.806 32.9286 48.926C32.9286 48.996 32.9146 49.136 32.9006 49.192H28.3646ZM35.8333 53L36.8833 48.226C37.3173 47.652 38.0593 47.12 38.8433 47.12C39.0813 47.12 39.2913 47.148 39.3753 47.176L39.6133 46.098C38.4513 46.098 37.7653 46.504 37.0933 47.274L37.3313 46.238H36.2813L34.7833 53H35.8333ZM42.0084 53.168C43.7024 53.168 44.6684 52.118 44.6684 50.942C44.6684 48.968 41.1124 49.178 41.1124 47.96C41.1124 47.386 41.6584 46.924 42.5684 46.924C43.4364 46.924 44.2904 47.372 44.5984 47.862L45.2004 47.176C44.7524 46.56 43.7724 46.07 42.6244 46.07C40.9724 46.07 40.0624 47.036 40.0624 48.156C40.0624 50.046 43.6184 49.836 43.6184 51.124C43.6184 51.74 43.0304 52.314 42.0644 52.314C41.0564 52.314 40.1884 51.782 39.8244 51.25L39.1524 51.978C39.7684 52.748 40.7904 53.168 42.0084 53.168Z" fill="#013042"/>
</svg>
