<svg width="24" height="24" viewBox="0 0 24 24" fill="none" xmlns="http://www.w3.org/2000/svg">
<path d="M13.364 11.9495L17.607 16.1925C17.997 16.5825 17.997 17.2155 17.607 17.6065C17.216 17.9965 16.583 17.9965 16.193 17.6065L11.95 13.3635L7.70699 17.6065C7.31699 17.9965 6.68399 17.9965 6.29299 17.6065C5.90299 17.2155 5.90299 16.5825 6.29299 16.1925L10.536 11.9495L6.29299 7.7065C5.90299 7.3165 5.90299 6.6835 6.29299 6.2925C6.68399 5.9025 7.31699 5.9025 7.70699 6.2925L11.95 10.5355L16.193 6.2925C16.583 5.9025 17.216 5.9025 17.607 6.2925C17.997 6.6835 17.997 7.3165 17.607 7.7065L13.364 11.9495Z" fill="#A9B4BD"/>
</svg>
